<svg width="64" height="64" viewBox="0 0 64 64" fill="none" xmlns="http://www.w3.org/2000/svg">
<path d="M57.042 32.5487C56.7866 32.4783 56.5199 32.459 56.257 32.4919C55.9941 32.5247 55.7403 32.6091 55.5101 32.7402C55.2799 32.8713 55.0779 33.0465 54.9155 33.2558C54.7531 33.4651 54.6336 33.7044 54.5639 33.96C53.216 38.8283 50.3139 43.1227 46.2997 46.189C42.2854 49.2554 37.3789 50.9258 32.3275 50.9457C27.2761 50.9656 22.3566 49.334 18.3183 46.2994C14.2799 43.2648 11.3441 38.9934 9.9578 34.1359C9.88407 33.8813 9.7609 33.6437 9.59532 33.4366C9.42975 33.2296 9.22502 33.0572 8.99282 32.9293C8.52387 32.6709 7.9715 32.6095 7.45723 32.7584C6.94296 32.9073 6.5089 33.2544 6.25056 33.7234C5.99222 34.1923 5.93075 34.7447 6.07967 35.259C7.7063 40.9637 11.1534 45.9803 15.8956 49.5442C20.6379 53.1082 26.4152 55.024 32.3473 54.9998C38.2794 54.9757 44.041 53.0128 48.754 49.4104C53.4671 45.8079 56.8732 40.7634 58.4533 35.0456C58.526 34.789 58.5471 34.5205 58.5154 34.2557C58.4836 33.9908 58.3997 33.7349 58.2685 33.5028C58.1373 33.2706 57.9613 33.0667 57.7508 32.9029C57.5403 32.7392 57.2993 32.6188 57.042 32.5487Z" fill="#92B6DE"/>
<path d="M18.392 16.1864L21.6412 31.2386C21.8166 32.0464 22.2591 32.7715 22.8972 33.2968C23.5354 33.8222 24.3321 34.1171 25.1585 34.134C25.9849 34.1509 26.793 33.8887 27.4521 33.3899C28.1112 32.891 28.5829 32.1845 28.7911 31.3846L32.2649 17.972L35.735 31.3846C35.9418 32.1863 36.4132 32.8948 37.0728 33.3953C37.7325 33.8957 38.5418 34.1588 39.3696 34.1419C40.1974 34.125 40.9953 33.8291 41.634 33.3022C42.2727 32.7752 42.7148 32.0481 42.8886 31.2386L46.1341 16.1864L47.8187 24.2721L52.6851 23.8977L52.2134 21.7416C51.6633 18.4754 50.875 15.2537 49.855 12.1024C48.1967 7.10875 44.4533 7.10875 43.3902 9.80398C42.3271 12.4992 39.2051 25.3577 39.2051 25.3577L35.8623 11.4286C35.662 10.5918 35.2109 9.83615 34.5694 9.26281C33.9278 8.68948 33.1264 8.32582 32.2724 8.22054C31.4178 8.3251 30.6155 8.68844 29.9732 9.26183C29.3309 9.83522 28.8792 10.5913 28.6788 11.4286L25.3359 25.3577C25.3359 25.3577 22.2139 12.5104 21.1471 9.80398C20.0802 7.09752 16.3294 7.10875 14.6823 12.1062C13.66 15.2571 12.8706 18.4788 12.3202 21.7454L11.8823 24.2721H16.7487L18.392 16.1864Z" fill="#92B6DE"/>
<circle cx="14.3136" cy="24.4574" r="2.43132" fill="#92B6DE"/>
<path d="M52.6847 24.0848C52.6847 25.4286 51.5954 26.518 50.2516 26.518C48.9077 26.518 47.8184 25.4286 47.8184 24.0848C47.8184 22.741 48.9077 21.6516 50.2516 21.6516C51.5954 21.6516 52.6847 22.741 52.6847 24.0848Z" fill="#92B6DE"/>
</svg>
